<svg width="321" height="29" viewBox="0 0 321 29" fill="none" xmlns="http://www.w3.org/2000/svg">
<g filter="url(#filter0_d_15_23)">
<path d="M11.47 8.62C12.25 8.80667 12.8333 9.19 13.22 9.77C13.6067 10.3433 13.8 11.08 13.8 11.98C13.8 13.26 13.3633 14.25 12.49 14.95C11.6233 15.65 10.28 16 8.46 16H4.68V2.06H8.4C11.5333 2.06 13.1 3.3 13.1 5.78C13.1 6.36 12.9633 6.91333 12.69 7.44C12.4167 7.96667 12.01 8.36 11.47 8.62ZM10.62 5.86C10.62 5.19333 10.4133 4.72333 10 4.45C9.58667 4.17667 9.05333 4.04 8.4 4.04H7.2V7.9H8.82C9.24667 7.9 9.59333 7.79667 9.86 7.59C10.1267 7.38333 10.32 7.12667 10.44 6.82C10.56 6.50667 10.62 6.18667 10.62 5.86ZM8.74 13.98C9.46 13.98 10.0433 13.83 10.49 13.53C10.9367 13.2233 11.16 12.66 11.16 11.84C11.16 11.02 10.9267 10.47 10.46 10.19C10 9.90333 9.38667 9.76 8.62 9.76H7.2V13.98H8.74ZM19.8072 16.2C18.8339 16.2 18.0039 15.9933 17.3172 15.58C16.6305 15.1667 16.1072 14.5733 15.7472 13.8C15.3872 13.02 15.2072 12.0867 15.2072 11C15.2072 9.91333 15.3905 8.98 15.7572 8.2C16.1305 7.42 16.6672 6.82667 17.3672 6.42C18.0739 6.00667 18.9139 5.8 19.8872 5.8C20.8539 5.8 21.6739 6.01333 22.3472 6.44C23.0272 6.86 23.5405 7.46 23.8872 8.24C24.2339 9.02 24.4072 9.94 24.4072 11C24.4072 12.0533 24.2272 12.9733 23.8672 13.76C23.5072 14.54 22.9805 15.1433 22.2872 15.57C21.6005 15.99 20.7739 16.2 19.8072 16.2ZM19.8472 14.2C20.4672 14.2 20.9372 13.93 21.2572 13.39C21.5839 12.85 21.7472 12.0533 21.7472 11C21.7472 9.94 21.5839 9.14 21.2572 8.6C20.9372 8.05333 20.4672 7.78 19.8472 7.78C19.1939 7.78 18.7005 8.03667 18.3672 8.55C18.0339 9.06333 17.8672 9.88 17.8672 11C17.8672 12.12 18.0339 12.9333 18.3672 13.44C18.7005 13.9467 19.1939 14.2 19.8472 14.2ZM30.0061 16.3C29.2661 16.3 28.6861 16.1733 28.2661 15.92C27.8461 15.6667 27.5494 15.2867 27.3761 14.78C27.2094 14.2667 27.1261 13.5933 27.1261 12.76V8.14H25.8261V6.04H27.2261L27.3661 3.94L29.5461 3V6.04H32.0061V8.14H29.5461V12.7C29.5461 13.26 29.6228 13.6567 29.7761 13.89C29.9294 14.1233 30.1594 14.24 30.4661 14.24C30.7394 14.24 31.0361 14.17 31.3561 14.03C31.6828 13.8833 31.9528 13.72 32.1661 13.54L32.6461 15.56C32.3528 15.7667 31.9294 15.94 31.3761 16.08C30.8294 16.2267 30.3728 16.3 30.0061 16.3ZM41.6481 16.28C40.8481 16.28 40.1481 16.0633 39.5481 15.63C38.9548 15.1967 38.4948 14.5867 38.1681 13.8C37.8481 13.0067 37.6881 12.0867 37.6881 11.04C37.6881 9.37333 38.0248 8.08333 38.6981 7.17C39.3781 6.25667 40.3748 5.8 41.6881 5.8C42.3748 5.8 42.9515 5.97 43.4181 6.31C43.8848 6.65 44.1881 7.13333 44.3281 7.76L44.1481 6.3V0.799999H46.5081V16H44.3281V13.96C44.1415 14.6733 43.8181 15.24 43.3581 15.66C42.8981 16.0733 42.3281 16.28 41.6481 16.28ZM42.2281 14.3C42.5615 14.3 42.8681 14.1867 43.1481 13.96C43.4348 13.7333 43.6615 13.38 43.8281 12.9C44.0015 12.4133 44.0881 11.8067 44.0881 11.08C44.0881 10.0267 43.9381 9.22 43.6381 8.66C43.3381 8.1 42.8881 7.82 42.2881 7.82C41.9415 7.82 41.6148 7.92333 41.3081 8.13C41.0081 8.33667 40.7581 8.68 40.5581 9.16C40.3648 9.64 40.2681 10.2667 40.2681 11.04C40.2681 11.7533 40.3515 12.3533 40.5181 12.84C40.6915 13.3267 40.9248 13.6933 41.2181 13.94C41.5181 14.18 41.8548 14.3 42.2281 14.3ZM53.188 16.26C52.1146 16.26 51.228 16.0333 50.528 15.58C49.828 15.12 49.3146 14.5067 48.988 13.74C48.668 12.9733 48.508 12.1067 48.508 11.14C48.508 10.1533 48.688 9.25667 49.048 8.45C49.4146 7.63667 49.948 6.99333 50.648 6.52C51.348 6.04 52.1813 5.8 53.148 5.8C54.588 5.8 55.618 6.21667 56.238 7.05C56.858 7.87667 57.168 9.11333 57.168 10.76C57.168 11.08 57.1546 11.44 57.128 11.84H51.128C51.168 12.6467 51.3913 13.27 51.798 13.71C52.2113 14.1433 52.8146 14.36 53.608 14.36C54.0213 14.36 54.4646 14.27 54.938 14.09C55.4113 13.9033 55.7613 13.68 55.988 13.42L56.788 15.32C55.848 15.9467 54.648 16.26 53.188 16.26ZM54.628 10.28C54.628 9.3 54.5046 8.62667 54.258 8.26C54.018 7.88667 53.668 7.7 53.208 7.7C52.5613 7.7 52.058 7.94 51.698 8.42C51.3446 8.9 51.148 9.52 51.108 10.28H54.628ZM62.2391 16.18C61.2857 16.18 60.5357 16.0633 59.9891 15.83C59.4491 15.59 59.0657 15.3333 58.8391 15.06L59.5791 13.16C60.4324 13.8667 61.3391 14.22 62.2991 14.22C62.7324 14.22 63.0524 14.1333 63.2591 13.96C63.4724 13.78 63.5791 13.56 63.5791 13.3C63.5791 13.02 63.3957 12.7633 63.0291 12.53C62.6691 12.29 62.1324 12.0133 61.4191 11.7C60.9591 11.5 60.5591 11.29 60.2191 11.07C59.8791 10.85 59.5824 10.5533 59.3291 10.18C59.0824 9.8 58.9591 9.34 58.9591 8.8C58.9591 8.2 59.1057 7.67667 59.3991 7.23C59.6991 6.78333 60.1324 6.44 60.6991 6.2C61.2657 5.96 61.9457 5.84 62.7391 5.84C63.2124 5.84 63.6557 5.89333 64.0691 6C64.4891 6.1 64.8457 6.22667 65.1391 6.38C65.4324 6.52667 65.6457 6.66667 65.7791 6.8L65.0991 8.6C64.7924 8.36667 64.4391 8.17 64.0391 8.01C63.6457 7.84333 63.2391 7.76 62.8191 7.76C62.3191 7.76 61.9657 7.82667 61.7591 7.96C61.5591 8.08667 61.4591 8.3 61.4591 8.6C61.4591 8.9 61.6057 9.15 61.8991 9.35C62.1991 9.55 62.6591 9.77333 63.2791 10.02C64.1724 10.3733 64.8591 10.7933 65.3391 11.28C65.8191 11.76 66.0591 12.3467 66.0591 13.04C66.0591 13.62 65.9257 14.1467 65.6591 14.62C65.3991 15.0867 64.9824 15.4633 64.4091 15.75C63.8424 16.0367 63.1191 16.18 62.2391 16.18ZM72.2895 16.26C71.2162 16.26 70.3295 16.0333 69.6295 15.58C68.9295 15.12 68.4162 14.5067 68.0895 13.74C67.7695 12.9733 67.6095 12.1067 67.6095 11.14C67.6095 10.1533 67.7895 9.25667 68.1495 8.45C68.5162 7.63667 69.0495 6.99333 69.7495 6.52C70.4495 6.04 71.2829 5.8 72.2495 5.8C73.6895 5.8 74.7195 6.21667 75.3395 7.05C75.9595 7.87667 76.2695 9.11333 76.2695 10.76C76.2695 11.08 76.2562 11.44 76.2295 11.84H70.2295C70.2695 12.6467 70.4929 13.27 70.8995 13.71C71.3129 14.1433 71.9162 14.36 72.7095 14.36C73.1229 14.36 73.5662 14.27 74.0395 14.09C74.5129 13.9033 74.8629 13.68 75.0895 13.42L75.8895 15.32C74.9495 15.9467 73.7495 16.26 72.2895 16.26ZM73.7295 10.28C73.7295 9.3 73.6062 8.62667 73.3595 8.26C73.1195 7.88667 72.7695 7.7 72.3095 7.7C71.6629 7.7 71.1595 7.94 70.7995 8.42C70.4462 8.9 70.2495 9.52 70.2095 10.28H73.7295ZM83.9206 5.8C84.914 5.8 85.6606 6.11667 86.1606 6.75C86.6673 7.37667 86.9206 8.26667 86.9206 9.42V16H84.3606V9.64C84.3606 9.07333 84.2406 8.62333 84.0006 8.29C83.7606 7.95 83.4073 7.78 82.9406 7.78C82.6273 7.78 82.334 7.86 82.0606 8.02C81.794 8.18 81.5806 8.40333 81.4206 8.69C81.2606 8.97 81.1806 9.28667 81.1806 9.64V16H78.6206V6.04H80.9406L80.9906 7.35C81.6773 6.31667 82.654 5.8 83.9206 5.8ZM87.8019 6.04H90.6019L92.3219 11.02L92.7619 12.66L93.1619 11.02L94.8219 6.04H97.4619L93.6219 16H91.8419L87.8019 6.04ZM102.776 16.2C101.803 16.2 100.973 15.9933 100.286 15.58C99.5993 15.1667 99.0759 14.5733 98.7159 13.8C98.3559 13.02 98.1759 12.0867 98.1759 11C98.1759 9.91333 98.3593 8.98 98.7259 8.2C99.0993 7.42 99.6359 6.82667 100.336 6.42C101.043 6.00667 101.883 5.8 102.856 5.8C103.823 5.8 104.643 6.01333 105.316 6.44C105.996 6.86 106.509 7.46 106.856 8.24C107.203 9.02 107.376 9.94 107.376 11C107.376 12.0533 107.196 12.9733 106.836 13.76C106.476 14.54 105.949 15.1433 105.256 15.57C104.569 15.99 103.743 16.2 102.776 16.2ZM102.816 14.2C103.436 14.2 103.906 13.93 104.226 13.39C104.553 12.85 104.716 12.0533 104.716 11C104.716 9.94 104.553 9.14 104.226 8.6C103.906 8.05333 103.436 7.78 102.816 7.78C102.163 7.78 101.669 8.03667 101.336 8.55C101.003 9.06333 100.836 9.88 100.836 11C100.836 12.12 101.003 12.9333 101.336 13.44C101.669 13.9467 102.163 14.2 102.816 14.2ZM109.735 0.799999H112.175V16H109.735V0.799999ZM113.583 6.04H116.383L118.103 11.02L118.543 12.66L118.943 11.02L120.603 6.04H123.243L119.403 16H117.623L113.583 6.04ZM124.517 1.76H127.317V4.42H124.517V1.76ZM124.617 6.04H127.217V16H124.617V6.04ZM133.543 16.28C132.743 16.28 132.043 16.0633 131.443 15.63C130.849 15.1967 130.389 14.5867 130.063 13.8C129.743 13.0067 129.583 12.0867 129.583 11.04C129.583 9.37333 129.919 8.08333 130.593 7.17C131.273 6.25667 132.269 5.8 133.583 5.8C134.269 5.8 134.846 5.97 135.313 6.31C135.779 6.65 136.083 7.13333 136.223 7.76L136.043 6.3V0.799999H138.403V16H136.223V13.96C136.036 14.6733 135.713 15.24 135.253 15.66C134.793 16.0733 134.223 16.28 133.543 16.28ZM134.123 14.3C134.456 14.3 134.763 14.1867 135.043 13.96C135.329 13.7333 135.556 13.38 135.723 12.9C135.896 12.4133 135.983 11.8067 135.983 11.08C135.983 10.0267 135.833 9.22 135.533 8.66C135.233 8.1 134.783 7.82 134.183 7.82C133.836 7.82 133.509 7.92333 133.203 8.13C132.903 8.33667 132.653 8.68 132.453 9.16C132.259 9.64 132.163 10.2667 132.163 11.04C132.163 11.7533 132.246 12.3533 132.413 12.84C132.586 13.3267 132.819 13.6933 133.113 13.94C133.413 14.18 133.749 14.3 134.123 14.3ZM145.003 16.2C144.029 16.2 143.199 15.9933 142.513 15.58C141.826 15.1667 141.303 14.5733 140.943 13.8C140.583 13.02 140.403 12.0867 140.403 11C140.403 9.91333 140.586 8.98 140.953 8.2C141.326 7.42 141.863 6.82667 142.563 6.42C143.269 6.00667 144.109 5.8 145.083 5.8C146.049 5.8 146.869 6.01333 147.543 6.44C148.223 6.86 148.736 7.46 149.083 8.24C149.429 9.02 149.603 9.94 149.603 11C149.603 12.0533 149.423 12.9733 149.063 13.76C148.703 14.54 148.176 15.1433 147.483 15.57C146.796 15.99 145.969 16.2 145.003 16.2ZM145.043 14.2C145.663 14.2 146.133 13.93 146.453 13.39C146.779 12.85 146.943 12.0533 146.943 11C146.943 9.94 146.779 9.14 146.453 8.6C146.133 8.05333 145.663 7.78 145.043 7.78C144.389 7.78 143.896 8.03667 143.563 8.55C143.229 9.06333 143.063 9.88 143.063 11C143.063 12.12 143.229 12.9333 143.563 13.44C143.896 13.9467 144.389 14.2 145.043 14.2ZM155.77 6.04H158.15V6.36L157.95 7.76C158.03 7.38667 158.21 7.05 158.49 6.75C158.777 6.45 159.127 6.21333 159.54 6.04C159.953 5.86667 160.383 5.78 160.83 5.78C162.11 5.78 163.063 6.23 163.69 7.13C164.317 8.02333 164.63 9.27333 164.63 10.88C164.63 12.02 164.463 12.9967 164.13 13.81C163.797 14.6167 163.33 15.23 162.73 15.65C162.13 16.07 161.43 16.28 160.63 16.28C159.937 16.28 159.36 16.0667 158.9 15.64C158.44 15.2067 158.123 14.6667 157.95 14.02L158.19 15.9V20.36H155.77V6.04ZM160.05 14.3C160.39 14.3 160.707 14.1867 161 13.96C161.3 13.7333 161.543 13.3733 161.73 12.88C161.917 12.38 162.01 11.7467 162.01 10.98C162.01 10.2667 161.923 9.67333 161.75 9.2C161.577 8.72667 161.343 8.38 161.05 8.16C160.763 7.93333 160.443 7.82 160.09 7.82C159.69 7.82 159.347 7.96333 159.06 8.25C158.773 8.53667 158.557 8.93333 158.41 9.44C158.263 9.94 158.19 10.5067 158.19 11.14C158.19 11.7667 158.263 12.32 158.41 12.8C158.563 13.2733 158.78 13.6433 159.06 13.91C159.34 14.17 159.67 14.3 160.05 14.3ZM170.92 16.2C169.947 16.2 169.117 15.9933 168.43 15.58C167.744 15.1667 167.22 14.5733 166.86 13.8C166.5 13.02 166.32 12.0867 166.32 11C166.32 9.91333 166.504 8.98 166.87 8.2C167.244 7.42 167.78 6.82667 168.48 6.42C169.187 6.00667 170.027 5.8 171 5.8C171.967 5.8 172.787 6.01333 173.46 6.44C174.14 6.86 174.654 7.46 175 8.24C175.347 9.02 175.52 9.94 175.52 11C175.52 12.0533 175.34 12.9733 174.98 13.76C174.62 14.54 174.094 15.1433 173.4 15.57C172.714 15.99 171.887 16.2 170.92 16.2ZM170.96 14.2C171.58 14.2 172.05 13.93 172.37 13.39C172.697 12.85 172.86 12.0533 172.86 11C172.86 9.94 172.697 9.14 172.37 8.6C172.05 8.05333 171.58 7.78 170.96 7.78C170.307 7.78 169.814 8.03667 169.48 8.55C169.147 9.06333 168.98 9.88 168.98 11C168.98 12.12 169.147 12.9333 169.48 13.44C169.814 13.9467 170.307 14.2 170.96 14.2ZM177.739 6.04H179.999L180.119 7.8C180.333 7.28667 180.669 6.84667 181.129 6.48C181.589 6.10667 182.239 5.92 183.079 5.92C183.413 5.92 183.719 5.97333 183.999 6.08L183.439 8.7C183.326 8.58667 183.189 8.50667 183.029 8.46C182.876 8.40667 182.686 8.38 182.459 8.38C181.993 8.38 181.589 8.48 181.249 8.68C180.916 8.87333 180.663 9.1 180.489 9.36C180.323 9.62 180.239 9.83333 180.239 10V16H177.739V6.04ZM196.525 16L192.025 9.31V16H189.485V2.06H192.025V9L196.465 2.06H199.405L194.655 8.98L199.725 16H196.525ZM203.199 16.28C202.605 16.28 202.105 16.1467 201.699 15.88C201.292 15.6133 200.985 15.2533 200.779 14.8C200.579 14.3467 200.479 13.84 200.479 13.28C200.479 12.7933 200.639 12.31 200.959 11.83C201.285 11.3433 201.862 10.93 202.689 10.59C203.515 10.25 204.632 10.08 206.039 10.08V9.62C206.039 9.07333 205.905 8.65 205.639 8.35C205.379 8.05 204.919 7.9 204.259 7.9C203.739 7.9 203.229 7.99 202.729 8.17C202.235 8.34333 201.872 8.56 201.639 8.82L200.839 6.9C201.292 6.59333 201.855 6.33333 202.529 6.12C203.202 5.90667 203.919 5.8 204.679 5.8C205.632 5.8 206.385 5.94667 206.939 6.24C207.499 6.53333 207.892 6.94667 208.119 7.48C208.345 8.01333 208.459 8.67333 208.459 9.46V16H206.319L206.139 14.58C205.785 15.1533 205.365 15.58 204.879 15.86C204.399 16.14 203.839 16.28 203.199 16.28ZM204.259 14.36C204.565 14.36 204.889 14.2367 205.229 13.99C205.569 13.7433 205.839 13.4333 206.039 13.06V11.64C205.945 11.6267 205.785 11.62 205.559 11.62C204.885 11.62 204.282 11.7333 203.749 11.96C203.222 12.18 202.959 12.54 202.959 13.04C202.959 13.5133 203.062 13.8533 203.269 14.06C203.482 14.26 203.812 14.36 204.259 14.36ZM211.18 0.799999H213.62V16H211.18V0.799999ZM216.548 1.76H219.348V4.42H216.548V1.76ZM216.648 6.04H219.248V16H216.648V6.04ZM224.874 14.18H228.974V16H221.014L225.524 7.94H221.854V6.04H229.374L224.874 14.18ZM234.401 16.3C233.661 16.3 233.081 16.1733 232.661 15.92C232.241 15.6667 231.944 15.2867 231.771 14.78C231.604 14.2667 231.521 13.5933 231.521 12.76V8.14H230.221V6.04H231.621L231.761 3.94L233.941 3V6.04H236.401V8.14H233.941V12.7C233.941 13.26 234.017 13.6567 234.171 13.89C234.324 14.1233 234.554 14.24 234.861 14.24C235.134 14.24 235.431 14.17 235.751 14.03C236.077 13.8833 236.347 13.72 236.561 13.54L237.041 15.56C236.747 15.7667 236.324 15.94 235.771 16.08C235.224 16.2267 234.767 16.3 234.401 16.3ZM238.794 6.04H241.054L241.174 7.8C241.387 7.28667 241.724 6.84667 242.184 6.48C242.644 6.10667 243.294 5.92 244.134 5.92C244.467 5.92 244.774 5.97333 245.054 6.08L244.494 8.7C244.381 8.58667 244.244 8.50667 244.084 8.46C243.931 8.40667 243.741 8.38 243.514 8.38C243.047 8.38 242.644 8.48 242.304 8.68C241.971 8.87333 241.717 9.1 241.544 9.36C241.377 9.62 241.294 9.83333 241.294 10V16H238.794V6.04ZM250.295 16.2C249.322 16.2 248.492 15.9933 247.805 15.58C247.119 15.1667 246.595 14.5733 246.235 13.8C245.875 13.02 245.695 12.0867 245.695 11C245.695 9.91333 245.879 8.98 246.245 8.2C246.619 7.42 247.155 6.82667 247.855 6.42C248.562 6.00667 249.402 5.8 250.375 5.8C251.342 5.8 252.162 6.01333 252.835 6.44C253.515 6.86 254.029 7.46 254.375 8.24C254.722 9.02 254.895 9.94 254.895 11C254.895 12.0533 254.715 12.9733 254.355 13.76C253.995 14.54 253.469 15.1433 252.775 15.57C252.089 15.99 251.262 16.2 250.295 16.2ZM250.335 14.2C250.955 14.2 251.425 13.93 251.745 13.39C252.072 12.85 252.235 12.0533 252.235 11C252.235 9.94 252.072 9.14 251.745 8.6C251.425 8.05333 250.955 7.78 250.335 7.78C249.682 7.78 249.189 8.03667 248.855 8.55C248.522 9.06333 248.355 9.88 248.355 11C248.355 12.12 248.522 12.9333 248.855 13.44C249.189 13.9467 249.682 14.2 250.335 14.2ZM265.094 7.26L264.674 10.94H266.734V12.48H264.494L264.094 16H262.334L262.734 12.48H260.434L260.034 16H258.274L258.674 12.48H256.594V10.94H258.854L259.274 7.26H257.114V5.74H259.454L259.874 2.06H261.634L261.214 5.74H263.514L263.934 2.06H265.694L265.274 5.74H267.254V7.26H265.094ZM263.334 7.26H261.034L260.614 10.94H262.914L263.334 7.26ZM279.817 13.48H278.137V16H275.517V13.48H268.917L268.777 13.26L273.917 2.06H278.137V11.54H279.817V13.48ZM272.337 11.54H275.637L275.727 3.49L273.477 9.06L272.337 11.54ZM285.884 16.3C284.997 16.3 284.29 16.2133 283.764 16.04C283.244 15.8667 282.81 15.6133 282.464 15.28L283.444 13.28C283.69 13.5467 284.027 13.74 284.454 13.86C284.88 13.98 285.31 14.04 285.744 14.04C286.424 14.04 287.027 13.8667 287.554 13.52C288.087 13.1667 288.507 12.68 288.814 12.06C289.12 11.4333 289.29 10.72 289.324 9.92C289.337 9.73333 289.344 9.48667 289.344 9.18C289.004 9.84 288.504 10.3367 287.844 10.67C287.184 10.9967 286.464 11.16 285.684 11.16C284.81 11.16 284.057 10.96 283.424 10.56C282.797 10.1533 282.32 9.61 281.994 8.93C281.667 8.25 281.504 7.5 281.504 6.68C281.504 5.67333 281.724 4.79667 282.164 4.05C282.61 3.29667 283.227 2.72 284.014 2.32C284.807 1.92 285.717 1.72 286.744 1.72C287.617 1.72 288.447 1.95333 289.234 2.42C290.027 2.88667 290.68 3.64667 291.194 4.7C291.707 5.74667 291.964 7.09333 291.964 8.74C291.964 10.2667 291.704 11.6033 291.184 12.75C290.664 13.89 289.944 14.7667 289.024 15.38C288.104 15.9933 287.057 16.3 285.884 16.3ZM286.344 9.12C286.777 9.12 287.19 9.01333 287.584 8.8C287.984 8.58 288.31 8.29 288.564 7.93C288.817 7.56333 288.957 7.16667 288.984 6.74C288.984 6.20667 288.894 5.71667 288.714 5.27C288.534 4.81667 288.27 4.45667 287.924 4.19C287.577 3.91667 287.164 3.78 286.684 3.78C286.25 3.78 285.844 3.88667 285.464 4.1C285.084 4.30667 284.774 4.61333 284.534 5.02C284.3 5.42 284.184 5.89333 284.184 6.44C284.184 7.24667 284.367 7.89667 284.734 8.39C285.107 8.87667 285.644 9.12 286.344 9.12ZM301.555 8.72C302.388 9 303.045 9.43333 303.525 10.02C304.005 10.6067 304.245 11.3267 304.245 12.18C304.245 13.1333 303.991 13.9233 303.485 14.55C302.985 15.1767 302.335 15.6367 301.535 15.93C300.741 16.2167 299.898 16.36 299.005 16.36C298.105 16.36 297.255 16.2167 296.455 15.93C295.661 15.6367 295.011 15.1767 294.505 14.55C293.998 13.9233 293.745 13.1333 293.745 12.18C293.745 11.3333 293.981 10.62 294.455 10.04C294.928 9.45333 295.581 9.01333 296.415 8.72C295.748 8.42 295.235 7.99 294.875 7.43C294.521 6.86333 294.345 6.16667 294.345 5.34C294.345 4.50667 294.565 3.82 295.005 3.28C295.445 2.73333 296.018 2.33667 296.725 2.09C297.431 1.84333 298.198 1.72 299.025 1.72C299.845 1.72 300.601 1.84333 301.295 2.09C301.995 2.33667 302.561 2.73333 302.995 3.28C303.428 3.82 303.645 4.50667 303.645 5.34C303.645 6.14667 303.458 6.83333 303.085 7.4C302.718 7.96667 302.208 8.40667 301.555 8.72ZM299.045 3.56C297.698 3.56 297.025 4.21333 297.025 5.52C297.025 6.23333 297.205 6.79333 297.565 7.2C297.925 7.6 298.418 7.8 299.045 7.8C299.665 7.8 300.141 7.6 300.475 7.2C300.815 6.8 300.985 6.24 300.985 5.52C300.985 4.86 300.828 4.37 300.515 4.05C300.201 3.72333 299.711 3.56 299.045 3.56ZM299.005 14.34C299.771 14.34 300.351 14.1567 300.745 13.79C301.145 13.4233 301.345 12.8733 301.345 12.14C301.345 11.3133 301.118 10.71 300.665 10.33C300.211 9.95 299.658 9.76 299.005 9.76C298.338 9.76 297.775 9.95 297.315 10.33C296.855 10.71 296.625 11.3133 296.625 12.14C296.625 12.8733 296.825 13.4233 297.225 13.79C297.631 14.1567 298.225 14.34 299.005 14.34ZM313.938 8.72C314.771 9 315.428 9.43333 315.908 10.02C316.388 10.6067 316.628 11.3267 316.628 12.18C316.628 13.1333 316.374 13.9233 315.868 14.55C315.368 15.1767 314.718 15.6367 313.918 15.93C313.124 16.2167 312.281 16.36 311.388 16.36C310.488 16.36 309.638 16.2167 308.838 15.93C308.044 15.6367 307.394 15.1767 306.888 14.55C306.381 13.9233 306.128 13.1333 306.128 12.18C306.128 11.3333 306.364 10.62 306.838 10.04C307.311 9.45333 307.964 9.01333 308.798 8.72C308.131 8.42 307.618 7.99 307.258 7.43C306.904 6.86333 306.728 6.16667 306.728 5.34C306.728 4.50667 306.948 3.82 307.388 3.28C307.828 2.73333 308.401 2.33667 309.108 2.09C309.814 1.84333 310.581 1.72 311.408 1.72C312.228 1.72 312.984 1.84333 313.678 2.09C314.378 2.33667 314.944 2.73333 315.378 3.28C315.811 3.82 316.028 4.50667 316.028 5.34C316.028 6.14667 315.841 6.83333 315.467 7.4C315.101 7.96667 314.591 8.40667 313.938 8.72ZM311.428 3.56C310.081 3.56 309.408 4.21333 309.408 5.52C309.408 6.23333 309.588 6.79333 309.948 7.2C310.308 7.6 310.801 7.8 311.428 7.8C312.048 7.8 312.524 7.6 312.858 7.2C313.198 6.8 313.368 6.24 313.368 5.52C313.368 4.86 313.211 4.37 312.898 4.05C312.584 3.72333 312.094 3.56 311.428 3.56ZM311.388 14.34C312.154 14.34 312.734 14.1567 313.128 13.79C313.528 13.4233 313.728 12.8733 313.728 12.14C313.728 11.3133 313.501 10.71 313.048 10.33C312.594 9.95 312.041 9.76 311.388 9.76C310.721 9.76 310.158 9.95 309.698 10.33C309.238 10.71 309.008 11.3133 309.008 12.14C309.008 12.8733 309.208 13.4233 309.608 13.79C310.014 14.1567 310.608 14.34 311.388 14.34Z" fill="#C2C6C9"/>
</g>
<defs>
<filter id="filter0_d_15_23" x="0.679993" y="0.799988" width="319.948" height="27.56" filterUnits="userSpaceOnUse" color-interpolation-filters="sRGB">
<feFlood flood-opacity="0" result="BackgroundImageFix"/>
<feColorMatrix in="SourceAlpha" type="matrix" values="0 0 0 0 0 0 0 0 0 0 0 0 0 0 0 0 0 0 127 0" result="hardAlpha"/>
<feOffset dy="4"/>
<feGaussianBlur stdDeviation="2"/>
<feComposite in2="hardAlpha" operator="out"/>
<feColorMatrix type="matrix" values="0 0 0 0 0 0 0 0 0 0 0 0 0 0 0 0 0 0 0.25 0"/>
<feBlend mode="normal" in2="BackgroundImageFix" result="effect1_dropShadow_15_23"/>
<feBlend mode="normal" in="SourceGraphic" in2="effect1_dropShadow_15_23" result="shape"/>
</filter>
</defs>
</svg>
